<?xml version="1.0" standalone="no"?>
<!DOCTYPE svg PUBLIC "-//W3C//DTD SVG 20010904//EN"
 "http://www.w3.org/TR/2001/REC-SVG-20010904/DTD/svg10.dtd">
<svg version="1.0" xmlns="http://www.w3.org/2000/svg"
 width="500.000000pt" height="500.000000pt" viewBox="0 0 500.000000 500.000000"
 preserveAspectRatio="xMidYMid meet">
<metadata>
Created by potrace 1.14, written by Peter Selinger 2001-2017
</metadata>
<g transform="translate(0.000000,500.000000) scale(0.100000,-0.100000)"
fill="#000000" stroke="none">
<path d="M2225 4725 c-131 -16 -346 -62 -400 -84 -11 -5 -33 -12 -50 -17 -50
-15 -218 -284 -310 -498 -14 -33 -24 -60 -23 -61 2 -2 21 -12 43 -23 22 -11
51 -31 64 -45 l23 -26 217 0 c211 0 441 -21 541 -51 19 -5 40 -10 46 -10 7 0
56 55 110 122 125 156 376 407 521 522 62 49 111 92 108 95 -10 10 -139 40
-260 62 -149 26 -477 34 -630 14z"/>
<path d="M3230 4519 c-197 -160 -391 -355 -554 -560 -41 -52 -75 -98 -76 -104
0 -5 37 -23 83 -39 45 -15 150 -61 232 -101 235 -114 446 -263 663 -470 94
-89 104 -96 120 -83 33 29 68 42 131 47 l64 6 19 55 c79 234 115 551 88 795
l-10 90 -62 57 c-103 94 -337 247 -473 308 -27 12 -69 31 -92 41 -23 11 -46
19 -50 19 -4 -1 -42 -28 -83 -61z"/>
<path d="M1455 4488 c-214 -108 -465 -300 -611 -465 -38 -43 -71 -80 -74 -83
-33 -31 -184 -244 -197 -276 -4 -10 31 3 103 39 60 29 136 64 169 77 78 31 83
35 96 80 15 50 87 132 145 164 24 14 77 34 116 45 39 11 71 21 73 23 1 2 12
26 25 53 39 81 110 204 167 289 29 43 52 80 51 82 -2 1 -30 -11 -63 -28z"/>
<path d="M4125 3970 c3 -36 11 -103 16 -150 21 -198 3 -445 -47 -644 l-25 -98
30 -72 c57 -138 61 -308 10 -427 l-22 -50 36 -82 c148 -343 222 -767 198
-1140 -3 -53 -5 -97 -3 -97 9 0 119 183 165 275 218 436 286 859 217 1358 -56
409 -279 868 -573 1182 -6 6 -7 -14 -2 -55z"/>
<path d="M1265 3933 c-53 -9 -67 -15 -100 -44 -108 -95 11 -223 153 -164 70
30 105 88 87 144 -12 38 -88 72 -140 64z"/>
<path d="M1587 3752 c-9 -4 -26 -22 -37 -39 -28 -47 -105 -99 -185 -126 l-70
-24 -17 -119 c-23 -158 -24 -454 -3 -618 37 -281 104 -510 223 -758 l56 -118
63 0 c35 0 63 2 63 3 0 45 35 341 50 422 81 441 239 863 459 1228 29 48 52 90
50 92 -2 2 -56 13 -120 24 -181 33 -484 52 -532 33z"/>
<path d="M930 3643 c-200 -72 -258 -97 -404 -170 -75 -37 -90 -51 -105 -98 -5
-16 -22 -61 -36 -100 -142 -375 -177 -846 -92 -1230 l22 -99 75 -37 c217 -108
373 -159 645 -215 165 -33 159 -34 190 29 15 28 44 70 66 92 21 23 39 45 39
49 0 5 -15 41 -34 80 -49 101 -96 212 -96 225 0 6 -4 19 -9 29 -29 54 -91 286
-115 428 -46 266 -42 631 9 866 8 37 15 71 15 77 0 6 -19 19 -42 29 -24 10
-49 26 -57 35 -13 17 -42 21 -71 10z"/>
<path d="M2436 3617 c-106 -172 -191 -343 -301 -602 -24 -57 -103 -300 -128
-395 -49 -184 -100 -494 -110 -667 l-4 -71 48 -31 c26 -17 70 -57 99 -88 l51
-56 92 23 c513 124 987 417 1329 821 l47 55 -15 65 c-15 62 -15 185 1 235 11
35 -203 239 -400 381 -170 122 -408 249 -598 317 l-97 35 -14 -22z"/>
<path d="M3775 2938 c-89 -70 -84 -262 9 -319 64 -39 125 -15 162 64 40 87 28
185 -31 244 -41 41 -97 45 -140 11z"/>
<path d="M3640 2299 c-113 -137 -309 -314 -469 -423 -262 -179 -579 -319 -871
-386 -137 -31 -136 -31 -143 -83 -4 -25 -17 -69 -30 -99 l-24 -53 81 -65 c413
-333 913 -528 1426 -554 l115 -6 110 82 c61 45 168 141 239 212 l129 129 -6
231 c-6 274 -26 406 -94 645 -37 133 -67 212 -135 359 -35 77 -40 83 -60 75
-37 -13 -131 -8 -164 10 l-31 16 -73 -90z"/>
<path d="M380 1739 c0 -34 133 -308 207 -426 272 -433 699 -773 1173 -932 115
-39 269 -81 297 -81 7 0 -12 43 -42 94 -30 52 -55 97 -55 100 0 2 -15 37 -34
78 -44 96 -118 301 -146 409 l-22 86 -84 11 c-207 28 -366 140 -451 318 l-28
59 -115 26 c-209 48 -419 125 -595 219 -101 54 -105 55 -105 39z"/>
<path d="M1545 1722 c-111 -52 -153 -167 -101 -277 82 -177 346 -216 451 -66
26 37 30 51 30 109 -1 76 -16 113 -70 167 -56 55 -109 78 -195 82 -58 3 -84 0
-115 -15z"/>
<path d="M1960 1081 c0 -32 47 -199 95 -341 42 -123 173 -406 211 -455 14 -19
26 -20 237 -20 186 1 242 4 347 23 233 43 423 103 610 195 l105 51 -115 7
c-271 17 -457 51 -695 128 -239 77 -536 234 -717 378 -37 29 -69 53 -72 53 -4
0 -6 -9 -6 -19z"/>
</g>
</svg>
